<svg xmlns="http://www.w3.org/2000/svg" viewBox="0 0 600 350">
  <defs>
    <linearGradient id="bg" x1="0" y1="0" x2="1" y2="1">
      <stop offset="0" stop-color="#f6d365"/>
      <stop offset="1" stop-color="#fda085"/>
    </linearGradient>
  </defs>
  <rect width="600" height="350" fill="url(#bg)"/>
  <!-- palette -->
  <g transform="translate(300,180)">
    <path d="M 0 -85 C 70 -85 115 -45 115 5 C 115 55 75 85 25 85 C 5 85 5 70 10 58 C 15 44 8 35 -8 35 C -60 35 -115 25 -115 -20 C -115 -60 -60 -85 0 -85 Z"
          fill="#ffffff" opacity="0.93"/>
    <circle cx="-55" cy="-40" r="13" fill="#7c6ce0"/>
    <circle cx="-10" cy="-55" r="13" fill="#fda085"/>
    <circle cx="40" cy="-45" r="13" fill="#84fab0"/>
    <circle cx="70" cy="-5" r="13" fill="#8fd3f4"/>
    <circle cx="-60" cy="0" r="13" fill="#fbc2eb"/>
  </g>
  <!-- brush -->
  <g transform="translate(455,250) rotate(40)">
    <rect x="-7" y="-70" width="14" height="85" rx="7" fill="#fff" opacity="0.9"/>
    <path d="M -7 15 L 7 15 L 4 45 Q 0 55 -4 45 Z" fill="#7c6ce0" opacity="0.8"/>
  </g>
</svg>
